# xmcd CD database file
#
# Track frame offsets:
#	150
#	37488
#	83782
#	115805
#	158551
#	192789
#
# Disc length: 2856 seconds
#
# Revision: 0
# Processed by: cddbd v1.5.2PL0 Copyright (c) Steve Scherf et al.
# Submitted via: CDex 1.70beta2
#
DISCID=460b2606
DTITLE=John MCLaughlin - Tghe Heart Of Things
DYEAR=1997
DGENRE=Jazz
TTITLE0=Acid Jazz
TTITLE1=Seven Sisters
TTITLE2=Mr. D.C.
TTITLE3=Fallen Angels
TTITLE4=Healing Hands
TTITLE5=When Love Is Far Away
EXTD=YEAR: 1997
EXTT0=
EXTT1=
EXTT2=
EXTT3=
EXTT4=
EXTT5=
PLAYORDER=
